<svg width="26" height="24" viewBox="0 0 26 24" fill="none" xmlns="http://www.w3.org/2000/svg">
<path d="M5.77632 7.5H0V16.5H5.77632L12.9967 24V0L5.77632 7.5ZM22.1811 21.54L20.1449 19.425C21.0871 18.452 21.8349 17.2951 22.3451 16.0208C22.8553 14.7466 23.118 13.3801 23.118 12C23.118 10.6199 22.8553 9.25344 22.3451 7.97918C21.8349 6.70492 21.0871 5.54801 20.1449 4.575L22.1811 2.46C23.3914 3.71035 24.3518 5.19686 25.0072 6.83407C25.6626 8.47128 26 10.2269 26 12C26 13.7731 25.6626 15.5287 25.0072 17.1659C24.3518 18.8031 23.3914 20.2896 22.1811 21.54V21.54ZM18.1088 17.31L16.0582 15.18C16.8694 14.3362 17.3251 13.1925 17.3251 12C17.3251 10.8075 16.8694 9.66375 16.0582 8.82L18.1088 6.69C18.7846 7.38465 19.3212 8.21163 19.6874 9.12308C20.0536 10.0345 20.2421 11.0124 20.2421 12C20.2421 12.9876 20.0536 13.9655 19.6874 14.8769C19.3212 15.7884 18.7846 16.6153 18.1088 17.31V17.31Z" fill="white"/>
</svg>
